<?xml version="1.0" encoding="utf-8"?>
<!-- Generator: Adobe Illustrator 18.1.0, SVG Export Plug-In . SVG Version: 6.00 Build 0)  -->
<svg version="1.1" id="Layer_4" xmlns="http://www.w3.org/2000/svg" xmlns:xlink="http://www.w3.org/1999/xlink" x="0px" y="0px"
	 viewBox="0 0 64 64" enable-background="new 0 0 64 64" xml:space="preserve">
<circle cx="32" cy="7.3" r="5.2"/>
<path d="M34.7,37.5c-1.9,1.1-4.3,0.6-5.5-1.3s-0.6-4.3,1.3-5.5s19.1-7,19.1-7S36.6,36.3,34.7,37.5z"/>
<path d="M32,62.5c-15.7,0-28.4-12.7-28.4-28.4c0-11.5,6.9-21.8,17.5-26.2l2.3,5.5C15,16.8,9.6,25,9.6,34.1c0,12.3,10,22.4,22.4,22.4
	c12.3,0,22.4-10,22.4-22.4c0-3.8-1-7.6-2.8-10.9l5.2-2.9c2.3,4.2,3.6,9,3.6,13.8C60.4,49.7,47.7,62.5,32,62.5z"/>
</svg>
