<?xml version="1.0" encoding="utf-8"?>
<!-- Generator: Adobe Illustrator 19.1.0, SVG Export Plug-In . SVG Version: 6.00 Build 0)  -->
<svg version="1.1" id="Layer_8_copy" xmlns="http://www.w3.org/2000/svg" xmlns:xlink="http://www.w3.org/1999/xlink" x="0px"
	 y="0px" viewBox="0 0 64 64" enable-background="new 0 0 64 64" xml:space="preserve">
<rect x="33.2" y="9.3" width="30.8" height="11"/>
<rect x="33.2" y="43.7" width="30.8" height="11"/>
<circle cx="14.5" cy="14.8" r="6.1"/>
<path d="M14.5,34.3C6.3,34.3-0.3,41-0.3,49.2c0,8.2,6.6,14.8,14.8,14.8s14.8-6.6,14.8-14.8C29.3,41,22.7,34.3,14.5,34.3z M14.5,59.6
	c-5.7,0-10.4-4.7-10.4-10.4s4.7-10.4,10.4-10.4s10.4,4.7,10.4,10.4S20.2,59.6,14.5,59.6z"/>
<path d="M14.5,0C6.3,0-0.3,6.6-0.3,14.8c0,8.2,6.6,14.8,14.8,14.8S29.3,23,29.3,14.8C29.3,6.6,22.7,0,14.5,0z M14.5,25.2
	c-5.7,0-10.4-4.7-10.4-10.4S8.7,4.4,14.5,4.4s10.4,4.7,10.4,10.4S20.2,25.2,14.5,25.2z"/>
</svg>
