<?xml version="1.0" encoding="utf-8"?>
<!-- Generator: Adobe Illustrator 18.1.0, SVG Export Plug-In . SVG Version: 6.00 Build 0)  -->
<svg version="1.1" id="Layer_3_copy" xmlns="http://www.w3.org/2000/svg" xmlns:xlink="http://www.w3.org/1999/xlink" x="0px"
	 y="0px" viewBox="0 0 64 64" enable-background="new 0 0 64 64" xml:space="preserve">
<g>
	<path d="M56.2,2.1H7.8c-3.9,0-7,3.2-7,7v45.7c0,3.9,3.2,7,7,7h48.4c3.9,0,7-3.2,7-7V9.1C63.3,5.3,60.1,2.1,56.2,2.1z M47.9,27.8h-5
		l-1.4,9.5h4.1c1.6,0,2.8,1.2,2.8,2.8c0,1.5-1.2,2.7-2.8,2.7h-5l-1.1,7.4c-0.2,1.5-1.7,2.5-3.2,2.3c-1.5-0.3-2.5-1.7-2.3-3.2l1-6.5
		h-8.7l-1.1,7.4c-0.2,1.5-1.7,2.5-3.2,2.3c-1.5-0.3-2.5-1.7-2.3-3.2l1-6.5h-4.2c-1.6,0-2.8-1.2-2.8-2.7c0-1.6,1.2-2.8,2.8-2.8h5
		l1.4-9.5h-4.2c-1.6,0-2.8-1.2-2.8-2.8c0-1.5,1.2-2.8,2.8-2.8h5l1.1-7.4c0.3-1.5,1.7-2.5,3.2-2.3c1.5,0.2,2.5,1.6,2.3,3.1l-1,6.6
		h8.7l1.2-7.4c0.2-1.5,1.6-2.5,3.1-2.3c1.5,0.2,2.5,1.6,2.3,3.1l-1,6.6h4.2c1.6,0,2.8,1.3,2.8,2.8C50.7,26.6,49.4,27.8,47.9,27.8z"
		/>
	<polygon points="27.2,37.3 35.9,37.3 37.3,27.8 28.6,27.8 	"/>
</g>
</svg>
