<?xml version="1.0" encoding="utf-8"?>
<!-- Generator: Adobe Illustrator 18.1.0, SVG Export Plug-In . SVG Version: 6.00 Build 0)  -->
<svg version="1.1" id="Layer_7" xmlns="http://www.w3.org/2000/svg" xmlns:xlink="http://www.w3.org/1999/xlink" x="0px" y="0px"
	 viewBox="0 0 64 64" enable-background="new 0 0 64 64" xml:space="preserve">
<g id="Layer_3">
	<g>
		<path d="M41.7,40.4v0.3c0,1.9,1.1,3.3,4.3,3.3c2.7,0,4.4-1.4,4.4-4.4v-2.4h-4.3C42.8,37.2,41.7,38.7,41.7,40.4z"/>
		<path d="M16.1,35.1h9.8c-1.5-4.8-3.1-9.5-4.9-14.1C19.2,25.6,17.6,30.2,16.1,35.1z"/>
		<path d="M56.3,2H7.7C3.8,2,0.7,5.2,0.7,9.1v45.8c0,3.9,3.2,7.1,7.1,7.1h48.5c3.9,0,7.1-3.2,7.1-7.1V9.1C63.3,5.2,60.2,2,56.3,2z
			 M31.4,48.1c-1.1,0-2.3-0.7-2.6-2.2c-0.5-2-1.1-4-1.6-6H14.8c-0.6,2-1.1,4-1.6,6c-0.3,1.5-1.4,2.2-2.5,2.2c-1.5,0-3.1-1.3-2.6-3.3
			c2.5-10.5,5.7-20.1,9.5-29.5c1-2.4,2.2-2.9,3.5-2.9c1.2,0,2.6,0.5,3.5,2.9c3.8,9.4,7,19,9.5,29.5C34.6,46.8,32.9,48.1,31.4,48.1z
			 M55.3,47.9c-1.1,0-2.2-0.5-2.7-1c-0.4-0.3-0.7-0.8-1-1.2c-1.8,1.8-4.5,2.2-6.6,2.2c-5.8,0-8.5-3-8.5-7.3v-0.3
			c0-4.3,3-7.1,9.1-7.1h4.9v-1.1c0-3.3-0.8-5.1-4.3-5.1c-2.2,0-3.4,0.5-4.6,1.1c-2.6,1.4-4.8-2.2-2.3-3.7c2-1.2,4.7-1.7,7.3-1.7
			c6.9,0,9.2,3.2,9.2,9.9v8.4c0,1.8,0.4,2.3,1.3,2.9c0.5,0.3,0.9,0.9,0.9,1.6C57.9,47.3,56.8,47.9,55.3,47.9z"/>
	</g>
</g>
</svg>
