<?xml version="1.0" encoding="utf-8"?>
<!-- Generator: Adobe Illustrator 19.1.0, SVG Export Plug-In . SVG Version: 6.00 Build 0)  -->
<svg version="1.1" id="Layer_8" xmlns="http://www.w3.org/2000/svg" xmlns:xlink="http://www.w3.org/1999/xlink" x="0px" y="0px"
	 viewBox="0 0 64 64" enable-background="new 0 0 64 64" xml:space="preserve">
<g>
	<g>
		<path d="M23,0.1H6c-3.3,0-6,2.7-6,6v17c0,3.3,2.7,6,6,6h17c3.3,0,6-2.7,6-6v-17C29,2.8,26.3,0.1,23,0.1z M12.6,26.1
			c-0.1,0.2-0.4,0.6-1,0.3c-0.6-0.3-10-9.6-10-9.6s-0.2-0.8,0-1.3s3.8-3.7,4.2-3.8S6.7,12,6.7,12s4.1,3.5,4.5,3.7
			c0.3,0.1,0.2,0.2,0.6-0.1c0.2-0.1,9.7-12.1,10-12.4c0.1-0.1,0.6-0.4,0.9-0.4c0.3,0,3.9,3,4.1,3.1c0.2,0.2,0.4,0.2,0.3,0.8
			C27.1,7.3,12.9,25.8,12.6,26.1z"/>
	</g>
</g>
<rect x="33.2" y="9.3" width="30.8" height="11"/>
<rect x="33.2" y="44.2" width="30.8" height="11"/>
<path d="M23,35H6c-3.3,0-6,2.7-6,6v17c0,3.3,2.7,6,6,6h17c3.3,0,6-2.7,6-6V41C29,37.7,26.3,35,23,35z M24,58c0,0.6-0.4,1-1,1H6
	c-0.6,0-1-0.4-1-1V41c0-0.6,0.4-1,1-1h17c0.6,0,1,0.4,1,1V58z"/>
</svg>
