<?xml version="1.0" encoding="utf-8"?>
<!-- Generator: Adobe Illustrator 19.0.0, SVG Export Plug-In . SVG Version: 6.00 Build 0)  -->
<svg version="1.1" id="Layer_7_사본" xmlns="http://www.w3.org/2000/svg" xmlns:xlink="http://www.w3.org/1999/xlink" x="0px"
	 y="0px" viewBox="0 0 64 64" enable-background="new 0 0 64 64" xml:space="preserve">
<g id="Layer_3_사본">
	<path d="M14.8,40.3C6.3,50.6-2.1,60.9-10.6,71.3"/>
	<path d="M56.3,2H7.7C3.8,2,0.7,5.2,0.7,9.1v45.8c0,3.9,3.2,7.1,7.1,7.1h48.5c3.9,0,7.1-3.2,7.1-7.1V9.1C63.3,5.2,60.2,2,56.3,2z
		 M44.9,16.7c2.8,0,5,2.2,5,5c0,2.8-2.2,5-5,5c-2.8,0-5-2.2-5-5C40,19,42.2,16.7,44.9,16.7z M58.9,51.7c0,3.3-2.7,6.1-6.1,6.1H11.2
		c-3.3,0-6.1-2.7-6.1-6.1V40.8c0,0,0,0,0-0.1c0.9-2.9,4.8-16.3,10.9-16c6.1,0.3,9.2,17,15.9,17c4,0,7.9-8.1,11.9-8
		c5.7,0.2,9.3,4.8,14.9,12V51.7z"/>
</g>
</svg>
