<?xml version="1.0" encoding="utf-8"?>
<!-- Generator: Adobe Illustrator 19.1.0, SVG Export Plug-In . SVG Version: 6.00 Build 0)  -->
<svg version="1.1" id="Layer_13" xmlns="http://www.w3.org/2000/svg" xmlns:xlink="http://www.w3.org/1999/xlink" x="0px" y="0px"
	 viewBox="0 0 64 64" enable-background="new 0 0 64 64" xml:space="preserve">
<g>
	<path d="M24.3,14.1c0.6,0,1.1,0.5,1.1,1.1c0,0.6-0.5,1.1-1.1,1.1h-9.8c-0.1,0.7-0.2,1.5-0.2,2.3v2h10c0.6,0,1.1,0.5,1.1,1.1
		s-0.5,1.1-1.1,1.1h-10v4.2h10c0.6,0,1.1,0.5,1.1,1.1c0,0.6-0.5,1.1-1.1,1.1h-10v4.4h35.3v-4.4h-10c-0.6,0-1.1-0.5-1.1-1.1
		c0-0.6,0.5-1.1,1.1-1.1h10v-4.2h-10c-0.6,0-1.1-0.5-1.1-1.1s0.5-1.1,1.1-1.1h10v-2c0-0.8-0.1-1.5-0.2-2.3h-9.8
		c-0.6,0-1.1-0.5-1.1-1.1c0-0.6,0.5-1.1,1.1-1.1h9.4C47.1,6.5,40.2,0.8,32,0.8S16.9,6.5,14.9,14.1H24.3z"/>
	<path d="M14.4,35.8c0.3,9.4,8.1,17.1,17.6,17.1s17.3-7.6,17.6-17.1H14.4z"/>
</g>
<path d="M32,63.8c-15.4,0-28-12.6-28-28h6c0,12.1,9.9,22,22,22s22-9.9,22-22h6C60,51.3,47.4,63.8,32,63.8z"/>
</svg>
