<?xml version="1.0" encoding="utf-8"?>
<!-- Generator: Adobe Illustrator 18.1.0, SVG Export Plug-In . SVG Version: 6.00 Build 0)  -->
<svg version="1.1" id="Layer_5" xmlns="http://www.w3.org/2000/svg" xmlns:xlink="http://www.w3.org/1999/xlink" x="0px" y="0px"
	 viewBox="0 0 64 64" enable-background="new 0 0 64 64" xml:space="preserve">
<path d="M45.6,43l-14.9-8.6c-0.9-0.5-1.4-1.4-1.4-2.4V11.2h5.5v19.2l13.6,7.8L45.6,43z"/>
<path d="M32,63.9C14.4,63.9,0.1,49.6,0.1,32S14.4,0.1,32,0.1S63.9,14.4,63.9,32S49.6,63.9,32,63.9z M32,6.9
	C18.2,6.9,6.9,18.2,6.9,32c0,13.8,11.2,25.1,25.1,25.1c13.8,0,25.1-11.2,25.1-25.1C57.1,18.2,45.8,6.9,32,6.9z"/>
</svg>
