<?xml version="1.0" encoding="utf-8"?>
<!-- Generator: Adobe Illustrator 16.0.0, SVG Export Plug-In . SVG Version: 6.00 Build 0)  -->
<!DOCTYPE svg PUBLIC "-//W3C//DTD SVG 1.1//EN" "http://www.w3.org/Graphics/SVG/1.1/DTD/svg11.dtd">
<svg version="1.1" id="Layer_1" xmlns="http://www.w3.org/2000/svg" xmlns:xlink="http://www.w3.org/1999/xlink" x="0px" y="0px"
	 width="17.641px" height="18px" viewBox="0 0 17.641 18" enable-background="new 0 0 17.641 18" xml:space="preserve">
<path fill="#3F83F2" d="M9,7.364v3.482h4.844c-0.209,1.125-0.844,2.078-1.797,2.715v2.26h2.91c1.701-1.568,2.684-3.875,2.684-6.615
	c0-0.639-0.059-1.252-0.164-1.841H9z"/>
<path fill="#32A753" d="M9,14.42c-2.344,0-4.328-1.582-5.036-3.709H0.958v2.33C2.438,15.982,5.482,18,9,18
	c2.43,0,4.467-0.807,5.957-2.18l-2.91-2.26C11.242,14.102,10.211,14.42,9,14.42z"/>
<path fill="#F9BB00" d="M0,9c0,1.453,0.348,2.826,0.958,4.041l3.006-2.33C3.784,10.17,3.682,9.594,3.682,9
	c0-0.593,0.103-1.17,0.282-1.71V4.958H0.958C0.348,6.173,0,7.548,0,9z"/>
<path fill="#E94334" d="M0.958,4.958L3.964,7.29C4.672,5.163,6.656,3.58,9,3.58c1.322,0,2.508,0.454,3.441,1.346l2.58-2.581
	C13.463,0.892,11.426,0,9,0C5.482,0,2.438,2.017,0.958,4.958z"/>
</svg>
