<?xml version="1.0" encoding="utf-8"?>
<!-- Generator: Adobe Illustrator 16.0.0, SVG Export Plug-In . SVG Version: 6.00 Build 0)  -->
<!DOCTYPE svg PUBLIC "-//W3C//DTD SVG 1.1//EN" "http://www.w3.org/Graphics/SVG/1.1/DTD/svg11.dtd">
<svg version="1.1" id="Layer_1" xmlns="http://www.w3.org/2000/svg" xmlns:xlink="http://www.w3.org/1999/xlink" x="0px" y="0px"
	 width="24px" height="24px" viewBox="0 0 24 24" enable-background="new 0 0 24 24" xml:space="preserve">
<g>
	<path d="M6.111,12.191c0-2.289,1.855-4.144,4.144-4.144c2.288,0,4.143,1.855,4.143,4.144s-1.855,4.143-4.143,4.143
		C7.966,16.334,6.111,14.479,6.111,12.191"/>
	<path d="M13.611,3.34h-2.672h-0.218v2.747c3.158,0.24,5.655,2.886,5.655,6.104c0,3.376-2.746,6.123-6.123,6.123
		c-3.376,0-6.122-2.746-6.122-6.123c0-3.218,2.497-5.865,5.655-6.104V3.352c-4.665,0.244-8.385,4.115-8.385,8.839
		c0,4.88,3.971,8.851,8.852,8.851c4.881,0,8.852-3.971,8.852-8.851V6.068h4.16V3.34H13.611z"/>
</g>
</svg>
