<?xml version="1.0" encoding="utf-8"?>
<!-- Generator: Adobe Illustrator 16.0.0, SVG Export Plug-In . SVG Version: 6.00 Build 0)  -->
<!DOCTYPE svg PUBLIC "-//W3C//DTD SVG 1.1//EN" "http://www.w3.org/Graphics/SVG/1.1/DTD/svg11.dtd">
<svg version="1.1" id="Layer_1" xmlns="http://www.w3.org/2000/svg" xmlns:xlink="http://www.w3.org/1999/xlink" x="0px" y="0px"
	 width="144.105px" height="136.028px" viewBox="0 0 144.105 136.028" enable-background="new 0 0 144.105 136.028"
	 xml:space="preserve">
<g>
	<defs>
		<path id="SVGID_1_" d="M72.646,5.511V19.32c15.878,1.204,28.429,14.509,28.429,30.69c0,16.972-13.809,30.778-30.779,30.778
			S39.517,66.981,39.517,50.01c0-16.181,12.551-29.486,28.429-30.69V5.573C44.498,6.799,25.797,26.262,25.797,50.01
			c0,24.536,19.962,44.498,44.499,44.498c24.537,0,44.499-19.962,44.499-44.498V19.231h20.911V5.511H72.646z"/>
	</defs>
	<clipPath id="SVGID_2_">
		<use xlink:href="#SVGID_1_"  overflow="visible"/>
	</clipPath>
	
		<linearGradient id="SVGID_3_" gradientUnits="userSpaceOnUse" x1="-40.9868" y1="149.1133" x2="-40.2979" y2="149.1133" gradientTransform="matrix(159.4459 0 0 -159.4459 6561.0103 23825.5605)">
		<stop  offset="0" style="stop-color:#A63E63"/>
		<stop  offset="1" style="stop-color:#E96D6D"/>
	</linearGradient>
	<rect x="25.797" y="5.511" clip-path="url(#SVGID_2_)" fill="url(#SVGID_3_)" width="109.908" height="88.997"/>
</g>
<g>
	<defs>
		<path id="SVGID_4_" d="M49.467,50.01c0,11.503,9.325,20.83,20.829,20.83c11.504,0,20.83-9.327,20.83-20.83
			c0-11.504-9.326-20.83-20.83-20.83C58.792,29.18,49.467,38.505,49.467,50.01"/>
	</defs>
	<clipPath id="SVGID_5_">
		<use xlink:href="#SVGID_4_"  overflow="visible"/>
	</clipPath>
	
		<linearGradient id="SVGID_6_" gradientUnits="userSpaceOnUse" x1="-40.6753" y1="149.2988" x2="-39.9858" y2="149.2988" gradientTransform="matrix(60.4369 0 0 -60.4369 2507.74 9073.165)">
		<stop  offset="0" style="stop-color:#46A4BF"/>
		<stop  offset="1" style="stop-color:#65D1C0"/>
	</linearGradient>
	<rect x="49.467" y="29.18" clip-path="url(#SVGID_5_)" fill="url(#SVGID_6_)" width="41.659" height="41.66"/>
</g>
<g>
	<path fill="#3D3D3D" d="M31.198,121.553c0-1.209-0.112-2.248-0.112-3.12h2.08c0,0.703,0.056,1.433,0.056,2.164h0.057
		c0.59-1.292,2.22-2.501,4.384-2.501c2.838,0,3.738,1.602,4.159,2.501c0.956-1.546,2.164-2.501,4.16-2.501
		c3.766,0,5.003,2.108,5.003,5.508v7.982h-2.193v-7.87c0-1.826-0.646-3.597-3.204-3.597c-1.854,0-3.401,1.518-3.401,3.879v7.588
		h-2.192v-7.447c0-2.896-0.731-4.02-2.529-4.02c-2.839,0-4.075,2.052-4.075,5.059v6.408h-2.192V121.553z"/>
	<path fill="#3D3D3D" d="M55.143,121.553c0-1.209-0.113-2.248-0.113-3.12h2.08c0,0.703,0.056,1.433,0.056,2.164h0.056
		c0.59-1.292,2.22-2.501,4.384-2.501c3.457,0,5.002,2.192,5.002,5.368v8.122h-2.192v-7.897c0-2.192-0.956-3.569-3.007-3.569
		c-2.838,0-4.075,2.052-4.075,5.059v6.408h-2.192V121.553z"/>
	<rect x="70.965" y="118.433" fill="#3D3D3D" width="2.192" height="13.153"/>
	<polygon fill="#3D3D3D" points="91.256,113.88 84.68,113.88 84.68,131.586 82.319,131.586 82.319,113.88 75.742,113.88 
		75.742,111.688 91.256,111.688 	"/>
	<path fill="#3D3D3D" d="M91.06,121.553c0-1.209-0.113-2.248-0.113-3.12h2.08c0,0.703,0.056,1.433,0.056,2.164h0.056
		c0.59-1.292,2.22-2.501,4.384-2.501c0.281,0,0.59,0.027,0.9,0.141l-0.141,2.22c-0.365-0.112-0.787-0.168-1.181-0.168
		c-2.67,0-3.85,1.883-3.85,4.89v6.408H91.06V121.553z"/>
	<path fill="#3D3D3D" d="M100.783,120.119c1.349-1.378,3.316-2.023,5.228-2.023c3.878,0,5.508,1.854,5.508,5.564v5.649
		c0,0.759,0.084,1.602,0.197,2.276h-2.108c-0.14-0.59-0.14-1.406-0.14-1.967h-0.056c-0.872,1.349-2.333,2.304-4.329,2.304
		c-2.67,0-4.89-1.349-4.89-3.906c0-4.356,5.059-4.609,8.291-4.609h0.843v-0.394c0-1.911-1.209-2.895-3.26-2.895
		c-1.405,0-2.867,0.478-3.906,1.433L100.783,120.119z M107.135,125.262c-2.782,0-4.581,0.759-4.581,2.53
		c0,1.658,1.237,2.276,2.895,2.276c2.53,0,3.822-1.827,3.879-3.963v-0.844H107.135z"/>
	<path fill="#3D3D3D" d="M124.897,121.722c-0.928-1.125-1.996-1.603-3.316-1.603c-2.952,0-4.441,2.192-4.441,4.89
		c0,2.698,1.771,4.891,4.441,4.891c1.433,0,2.529-0.506,3.345-1.63l1.63,1.546c-1.265,1.461-3.063,2.107-4.975,2.107
		c-4.075,0-6.802-2.867-6.802-6.914c0-3.99,2.754-6.913,6.802-6.913c1.939,0,3.738,0.646,5.059,2.079L124.897,121.722z"/>
	<polygon fill="#3D3D3D" points="129.084,110.339 131.276,110.339 131.276,124.223 137.263,118.433 140.382,118.433 134.03,124.418 
		141.029,131.586 137.796,131.586 131.276,124.672 131.276,131.586 129.084,131.586 	"/>
	<path fill="#E96D6D" d="M72.061,110.786c1.042,0,1.855,0.846,1.855,1.855c0,1.073-0.781,1.854-1.855,1.854
		s-1.854-0.781-1.854-1.854C70.207,111.632,71.02,110.786,72.061,110.786"/>
	<path fill="#3D3D3D" d="M17.399,111.182c-6.042,0-10.399,4.44-10.399,10.455c0,5.603,3.782,9.839,9.184,10.392v-2.217
		c-3.997-0.578-6.655-4.003-6.655-8.175c0-4.581,3.204-8.263,7.87-8.263c4.665,0,7.869,3.682,7.869,8.263
		c0,4.172-2.657,7.597-6.655,8.175v2.217c5.403-0.553,9.184-4.789,9.184-10.392C27.797,115.622,23.441,111.182,17.399,111.182"/>
</g>
</svg>
